<!-- License: PD. Made by paomedia: https://github.com/paomedia/small-n-flat -->
<!-- License: MIT. Made by Lucide Contributors: https://lucide.dev/ (checkmark) -->
<!-- License: CC Attribution. Made by salesforce: https://lightningdesignsystem.com/ (GitHub anchor) -->
<svg width="800px" height="800px" viewBox="0 0 24 24" xmlns="http://www.w3.org/2000/svg">
 <g transform="translate(0 -1028.4)">
  <!-- Shield layers -->
  <path d="m3 1031.4v10c0 4.2 3.6322 8 9 10 5.368-2 9-5.8 9-10v-10h-18z" fill="#7f8c8d"/>
  <path d="m3 1030.4v10c0 4.2 3.6322 8 9 10 5.368-2 9-5.8 9-10v-10h-18z" fill="#bdc3c7"/>
  <path d="m3 1030.4v10c0 4.2 3.6322 8 9 10v-20h-9z" fill="#95a5a6"/>
  <path d="m5 1032.4v8c0 3.4 2.8251 6.4 7 8 4.175-1.6 7-4.6 7-8v-8h-14z" fill="#ecf0f1"/>
  <path d="m5 1040.4c0 3.4 2.8251 6.4 7 8v-8h-7z" fill="#2980b9"/>
  <rect transform="translate(0 1028.4)" height="8" width="7" y="4" x="12" fill="#3498db"/>
  <rect transform="translate(0 1028.4)" height="8" width="7" y="4" x="5" fill="#bdc3c7"/>
  
  <!-- Checkmark overlay - fits in upper right blue area (x=12-19, y=1032.4-1040.4) -->
  <g transform="translate(15.5, 1036.4) scale(0.2)">
    <polyline points="10 -6 0 6 -6 0" fill="none" stroke="#FFFFFF" stroke-width="3" stroke-linecap="round" stroke-linejoin="round"/>
  </g>
  
  <!-- GitHub anchor overlay - fits in bottom left blue area (x=5-12, y=1040.4-1048.4) -->
  <g transform="translate(11.2, 1041.8) scale(0.08)">
    <path d="M0,35.7l-2.4-10.2c-0.3-1.1-1.7-1.5-2.5-0.8l-7.7,7.1c-0.9,0.8-0.5,2.2,0.6,2.5l3.3,1c-0.3,0.7-0.6,1.4-1,2
      c-1.8,3-4.7,4.9-9.3,5.5v-25c2.6-1.1,4.4-3.7,4.4-6.7c0-4-3.3-7.3-7.3-7.3c-4.1,0-7.3,3.3-7.3,7.3c0,3,1.8,5.5,4.4,6.7v25
      c-4.6-0.6-7.5-2.5-9.3-5.5c-0.4-0.7-0.7-1.3-1-2l3.3-1c1.1-0.3,1.4-1.8,0.6-2.5l-7.8-7c-0.9-0.8-2.2-0.4-2.5,0.8L-44,35.7
      c-0.3,1.1,0.8,2.1,1.9,1.8l2.6-0.8c0.4,1.1,0.8,2.1,1.4,3.1c2.9,4.9,8.2,7.8,16,7.8s13-2.9,16-7.8c0.6-1,1.1-2.1,1.4-3.1l2.6,0.8
      C-0.8,37.8,0.2,36.8,0,35.7z M-22,14.2c-1.6,0-2.9-1.3-2.9-2.9s1.3-2.9,2.9-2.9s2.9,1.3,2.9,2.9S-20.4,14.2,-22,14.2z" 
      fill="#FFFFFF" opacity="0.9"/>
  </g>
 </g>
</svg>


